<?xml version="1.0" encoding="UTF-8" standalone="no"?>
<svg
   xmlns:dc="http://purl.org/dc/elements/1.1/"
   xmlns:cc="http://creativecommons.org/ns#"
   xmlns:rdf="http://www.w3.org/1999/02/22-rdf-syntax-ns#"
   xmlns:svg="http://www.w3.org/2000/svg"
   xmlns="http://www.w3.org/2000/svg"
   viewBox="0 0 755.90533 755.90533"
   height="755.90533"
   width="755.90533"
   xml:space="preserve"
   id="svg2"
   version="1.1"><metadata
     id="metadata8"><rdf:RDF><cc:Work
         rdf:about=""><dc:format>image/svg+xml</dc:format><dc:type
           rdf:resource="http://purl.org/dc/dcmitype/StillImage" /></cc:Work></rdf:RDF></metadata><defs
     id="defs6"><clipPath
       id="clipPath18"
       clipPathUnits="userSpaceOnUse"><path
         id="path16"
         d="M 0,566.929 H 566.929 V 0 H 0 Z" /></clipPath></defs><g
     transform="matrix(1.3333333,0,0,-1.3333333,0,755.90533)"
     id="g10"><g
       id="g12"><g
         clip-path="url(#clipPath18)"
         id="g14"><g
           transform="translate(553.2,281.9291)"
           id="g20"><path
             id="path22"
             style="fill:#0264ab;fill-opacity:1;fill-rule:nonzero;stroke:none"
             d="m 0,0 c 0,-149.338 -121.062,-270.4 -270.4,-270.4 -149.338,0 -270.4,121.062 -270.4,270.4 0,149.338 121.062,270.4 270.4,270.4 C -121.062,270.4 0,149.338 0,0" /></g><g
           transform="translate(224.0046,288.2653)"
           id="g24"><path
             id="path26"
             style="fill:#ffffff;fill-opacity:1;fill-rule:nonzero;stroke:none"
             d="m 0,0 c -0.087,-0.843 0.3,-1.851 0.971,-2.767 1.055,-1.443 2.533,-2.309 4.208,-2.737 1.536,-0.393 3.133,-0.547 4.702,-0.805 2.896,-0.478 5.325,0.422 7.3,2.547 1.497,1.613 3.033,3.202 4.395,4.925 5.91,7.476 11.145,15.425 16.177,23.507 0.628,1.009 1.005,2.197 1.361,3.345 0.37,1.194 -0.062,1.799 -1.283,1.908 -0.928,0.082 -1.875,0.107 -2.801,0.024 C 31.054,29.591 27.465,28.078 24.099,26.038 21.277,24.329 18.532,22.492 15.765,20.693 9.92,16.893 5.681,11.567 1.811,5.906 0.671,4.239 0.132,2.334 0,0 m 293.836,-14.122 c 0.122,0.039 0.244,0.078 0.366,0.117 0.729,22.184 -1.236,44.112 -6.338,65.859 -0.445,-0.193 -0.8,-0.318 -1.128,-0.494 -5.128,-2.749 -9.63,-6.37 -14.026,-10.131 -0.582,-0.498 -1.107,-1.08 -1.573,-1.689 -1.407,-1.835 -1.956,-3.834 -1.473,-6.19 0.723,-3.536 1.87,-6.909 3.554,-10.079 2.349,-4.42 4.741,-8.821 7.252,-13.151 4.445,-7.664 8.975,-15.278 12.788,-23.288 0.16,-0.334 0.384,-0.637 0.578,-0.954 M 156.624,41.516 c 1.556,0.591 2.408,1.691 3.324,2.691 3.662,4.002 7.682,7.587 12.255,10.519 3.219,2.063 6.609,3.804 10.441,4.353 5.769,0.827 10.807,-0.688 14.83,-5.047 1.776,-1.926 2.578,-4.229 2.232,-6.838 -0.157,-1.188 -0.442,-2.387 -0.863,-3.508 -1.355,-3.6 -3.421,-6.765 -6.08,-9.55 -5.689,-5.956 -11.769,-11.439 -18.794,-15.811 -1.353,-0.842 -2.64,-1.799 -3.915,-2.76 -1.41,-1.063 -1.46,-1.54 -0.423,-3.009 1.419,-2.01 3.203,-3.629 5.334,-4.858 1.215,-0.7 2.518,-1.047 3.939,-1.046 2.001,10e-4 3.768,0.707 5.47,1.648 3.678,2.035 6.725,4.831 9.209,8.167 2.826,3.795 5.558,7.675 8.099,11.665 3.905,6.129 7.626,12.376 11.397,18.59 1.835,3.024 4.196,5.55 7.197,7.391 2.293,1.406 4.711,2.617 7.126,3.808 0.647,0.318 1.493,0.349 2.237,0.311 0.411,-0.021 1.022,-0.372 1.16,-0.725 0.458,-1.166 0.914,-2.429 0.322,-3.663 -2.595,-5.407 -5.013,-10.916 -7.921,-16.151 -3.232,-5.817 -6.905,-11.39 -10.433,-17.041 -1.294,-2.073 -2.03,-4.244 -1.884,-6.713 0.102,-1.711 0.585,-2.115 2.145,-1.531 2.431,0.912 4.784,1.982 6.819,3.636 3.505,2.849 7.029,5.675 10.495,8.571 4.481,3.744 8.744,7.77 13.403,11.274 7.613,5.725 15.469,11.131 23.644,16.043 5.262,3.162 10.772,5.766 16.831,7.043 0.107,0.023 0.214,0.052 0.318,0.088 1.019,0.346 1.24,0.686 1,1.717 -0.335,1.447 -0.637,2.908 -1.088,4.32 -4.034,12.644 -8.505,25.114 -14.295,37.091 -8.398,17.374 -18.23,33.814 -30.675,48.635 -6.378,7.597 -12.775,15.15 -19.926,22.063 -15.101,14.599 -31.763,27.119 -50.113,37.27 -14.129,7.815 -28.919,14.252 -44.37,19.095 -9.943,3.116 -20.023,5.638 -30.308,7.279 -4.507,0.719 -9.07,1.091 -13.611,1.594 -3.283,0.363 -6.565,0.851 -9.859,0.983 -5.887,0.235 -11.787,0.157 -17.676,0.369 -7.58,0.274 -15.067,-0.76 -22.564,-1.517 -5.522,-0.558 -11.023,-1.476 -16.476,-2.526 -5.885,-1.134 -11.738,-2.477 -17.54,-3.979 -4.256,-1.101 -8.429,-2.542 -12.599,-3.948 -6.249,-2.107 -12.608,-3.944 -18.41,-7.212 -1.145,-0.645 -2.421,-1.053 -3.618,-1.611 -3.341,-1.557 -6.737,-3.012 -9.995,-4.729 -14.247,-7.511 -28.025,-15.722 -40.47,-26.081 -11.155,-9.287 -21.991,-18.881 -31.451,-29.916 -6.953,-8.112 -13.781,-16.326 -19.42,-25.464 -5.29,-8.574 -10.768,-17.015 -15.31,-26.045 -8.503,-16.906 -14.715,-34.609 -19.195,-52.956 -0.887,-3.633 -1.954,-7.237 -2.567,-10.917 -1.013,-6.077 -1.805,-12.195 -2.534,-18.314 -0.501,-4.208 -0.718,-8.449 -1.097,-12.672 -0.532,-5.934 -0.726,-11.875 -0.466,-17.828 0.028,-0.638 0.186,-1.269 0.306,-2.052 0.951,0.287 1.75,0.474 2.505,0.773 0.813,0.322 1.559,0.324 2.397,0.04 1.922,-0.65 3.622,-1.608 4.919,-3.194 2.021,-2.473 4.019,-4.965 6.04,-7.439 2.491,-3.049 5.292,-5.755 8.687,-7.8 2.053,-1.237 4.242,-2.214 6.626,-2.397 7.96,-0.61 14.903,1.622 20.372,7.681 0.959,1.063 1.891,2.152 2.821,3.241 2.473,2.897 4.845,5.881 6.522,9.318 3.185,6.529 6.288,13.099 9.393,19.667 0.257,0.545 0.263,1.208 0.456,2.166 -1.184,-0.234 -2.038,-0.339 -2.855,-0.575 -6.398,-1.842 -12.79,-3.702 -19.179,-5.573 -1.6,-0.469 -3.207,-0.733 -4.884,-0.627 -2.406,0.153 -4.984,2.895 -3.21,5.922 1.317,2.248 2.728,4.424 4.765,6.079 1.963,1.595 3.953,3.176 6.055,4.577 4.614,3.075 9.717,5.149 14.947,6.909 4.068,1.369 8.158,2.67 12.237,4.004 1.217,0.398 2.411,0.855 3.125,2.014 1.847,2.996 3.911,5.889 5.464,9.032 3.668,7.424 6.406,15.284 10.415,22.725 -0.651,0 -1.307,0.085 -1.935,-0.014 -4.513,-0.704 -9.045,-1.32 -13.524,-2.202 -8.537,-1.681 -16.924,-3.991 -25.249,-6.498 -2.937,-0.884 -5.763,-2.174 -8.576,-3.423 -2.092,-0.929 -2.307,-2.752 -0.673,-4.365 0.156,-0.154 0.339,-0.281 0.503,-0.428 1.356,-1.209 2.705,-2.427 4.068,-3.628 1.212,-1.069 1.496,-2.335 1.022,-3.878 -0.747,-2.432 -2.145,-4.429 -3.838,-6.283 -2.804,-3.071 -6.313,-3.677 -10.127,-2.791 -5.782,1.344 -12.409,8.447 -9.115,17.454 5.112,13.975 14.14,24.593 28.052,30.43 10.197,4.278 20.573,8.158 31.429,10.489 6.185,1.327 12.401,2.537 18.637,3.591 4.175,0.706 8.407,1.089 12.622,1.538 3.667,0.39 7.342,0.882 11.021,0.959 12.559,0.261 25.124,0.288 37.664,-0.614 7.194,-0.518 14.375,-1.213 21.555,-1.898 2.947,-0.282 4.593,-2.113 4.439,-5.095 C 15.718,89.928 15.384,88.17 14.716,86.647 12.928,82.569 11.007,78.54 8.941,74.596 6.119,69.209 1.514,66.964 -4.484,67.651 c -5.524,0.633 -11.033,1.39 -16.553,2.062 -6.671,0.812 -13.345,1.628 -20.085,1.481 -4.846,-0.105 -9.692,-0.252 -14.535,-0.45 -2.363,-0.096 -4.735,-0.242 -7.076,-0.56 -3.045,-0.414 -5.31,-2.028 -6.557,-4.911 -3.473,-8.032 -6.942,-16.065 -10.404,-24.102 -0.321,-0.746 -0.624,-1.514 -0.361,-2.445 1.68,-0.241 3.308,0.064 4.941,0.214 1.976,0.181 3.957,0.354 5.911,-0.162 2.084,-0.551 3.091,-1.77 3.129,-3.893 0.016,-0.872 -0.075,-1.763 -0.253,-2.618 -0.779,-3.734 -2.922,-6.718 -5.325,-9.562 -2.744,-3.248 -6.1,-5.347 -10.403,-5.791 -1.752,-0.181 -3.492,-0.465 -5.242,-0.659 -1.846,-0.205 -3.215,-1.001 -3.938,-2.802 -0.614,-1.531 -1.342,-3.016 -1.977,-4.54 -3.007,-7.213 -5.972,-14.443 -9.004,-21.645 -2.926,-6.95 -5.845,-13.906 -9.554,-20.493 -1.81,-3.214 -3.607,-6.436 -5.39,-9.666 -0.299,-0.541 -0.495,-1.139 -0.829,-1.922 0.51,0.076 0.719,0.083 0.913,0.141 0.42,0.126 0.854,0.236 1.245,0.428 5.342,2.617 10.718,5.193 15.516,8.752 4.644,3.444 9.212,6.994 13.765,10.558 4.873,3.814 9.289,8.118 13.34,12.795 3.576,4.127 7.032,8.34 9.575,13.216 2.21,4.236 3.847,8.669 4.216,13.459 0.228,2.959 0.227,5.939 0.237,8.91 0.022,6.164 2.58,11.177 6.92,15.368 1.987,1.919 4.398,2.449 7.034,1.603 1.253,-0.402 2.461,-0.952 3.672,-1.477 1.817,-0.788 3.597,-1.666 5.431,-2.41 3.307,-1.342 6.727,-1.51 10.224,-0.879 3.221,0.581 6.24,1.747 9.26,2.951 1.424,0.567 2.904,1.049 4.401,1.364 1.943,0.41 2.724,-0.278 2.599,-2.263 -0.096,-1.532 -0.364,-3.061 -0.66,-4.571 -0.697,-3.547 -1.825,-6.906 -4.278,-9.702 -4.215,-4.803 -8.418,-9.618 -12.56,-14.484 -1.567,-1.84 -3.034,-3.779 -4.4,-5.774 -2.282,-3.331 -3.453,-7.111 -4.08,-11.066 -0.32,-2.017 0.731,-3.387 2.771,-3.74 2.491,-0.431 4.808,-0.026 6.96,1.349 2.073,1.325 3.822,3.006 5.276,4.953 3.197,4.277 6.445,8.528 9.421,12.958 8.554,12.734 19.131,23.42 31.748,32.135 4.076,2.816 8.456,4.672 13.382,5.236 1.742,0.2 3.426,0.078 4.928,-0.914 2.76,-1.823 4.844,-4.137 5.413,-7.552 0.1,-0.597 0.41,-1.16 0.673,-1.875 1.002,0.655 1.818,1.118 2.556,1.683 2.625,2.013 5.625,3.217 8.761,4.126 0.57,0.165 1.197,0.271 1.782,0.221 1.973,-0.169 2.962,-1.517 2.441,-3.419 -0.317,-1.155 -0.73,-2.329 -1.34,-3.35 -2.992,-5.01 -6.03,-9.994 -9.121,-14.943 -1.896,-3.035 -3.897,-6.006 -5.887,-8.982 -2.546,-3.805 -2.585,-8.117 -2.444,-12.42 0.067,-2.061 2.587,-3.824 4.782,-2.124 0.607,0.47 1.231,0.948 1.73,1.524 1.911,2.205 3.93,4.34 5.627,6.703 4.88,6.801 9.633,13.693 14.416,20.563 1.911,2.745 3.187,5.761 3.811,9.064 1.405,7.441 8.02,11.452 14.806,11.323 2.483,-0.048 4.109,-1.378 4.765,-3.804 0.487,-1.8 0.399,-3.594 -0.16,-5.372 -0.172,-0.546 -0.304,-1.105 -0.454,-1.658 0.115,-0.077 0.23,-0.154 0.344,-0.231 0.538,0.411 1.114,0.78 1.607,1.239 2.459,2.289 4.816,4.695 7.361,6.882 3.528,3.033 7.416,5.568 11.861,7.048 5.823,1.94 9.728,0.541 12.802,-4.348 0.059,-0.093 0.122,-0.183 0.184,-0.274 1.217,-1.795 1.416,-3.691 0.959,-5.825 -1.401,-6.536 -4.018,-12.58 -7.312,-18.334 -2.98,-5.207 -6.164,-10.298 -9.244,-15.448 -0.564,-0.943 -1.09,-1.912 -1.582,-2.894 -0.558,-1.113 -0.686,-2.319 -0.571,-3.544 0.106,-1.124 0.646,-1.593 1.759,-1.421 0.694,0.107 1.445,0.281 2.018,0.658 1.833,1.205 3.68,2.415 5.365,3.812 3.452,2.865 6.171,6.422 9.019,9.859 3.209,3.871 6.07,7.967 8.626,12.293 4.372,7.402 7.155,15.479 9.919,23.544 2.353,6.868 4.258,13.889 6.552,20.779 3.685,11.073 9.111,21.221 16.627,30.203 1.814,2.169 3.845,4.103 6.256,5.596 2.991,1.853 5.662,0.857 6.759,-2.492 0.308,-0.94 0.577,-1.895 0.829,-2.852 0.507,-1.932 0.701,-3.883 0.488,-5.889 -0.495,-4.659 -1.93,-9.041 -3.927,-13.235 -3.39,-7.117 -7.387,-13.9 -11.559,-20.583 -2.975,-4.764 -5.886,-9.568 -8.826,-14.354 -0.424,-0.691 -0.866,-1.378 -0.714,-2.464 m 135.035,-85.411 c -0.157,0.082 -0.315,0.164 -0.472,0.247 -0.431,-0.46 -0.92,-0.879 -1.284,-1.388 -1.824,-2.555 -4.215,-4.46 -6.795,-6.198 -5.569,-3.752 -11.78,-5.673 -18.36,-6.473 -8.869,-1.079 -17.698,-0.734 -26.456,1.098 -10.609,2.219 -21.204,4.51 -31.837,6.604 -4.853,0.955 -9.772,1.621 -14.685,2.217 -4.863,0.59 -9.759,0.901 -14.636,1.381 -7.404,0.729 -14.815,1.323 -22.262,1.236 -12.118,-0.143 -24.235,-0.158 -36.341,-0.936 -9.129,-0.587 -18.213,-1.578 -27.295,-2.593 -4.864,-0.544 -9.692,-1.407 -14.535,-2.136 -4.626,-0.696 -9.267,-1.308 -13.872,-2.13 -7.636,-1.363 -15.271,-2.755 -22.864,-4.337 -7.486,-1.559 -14.932,-3.314 -22.373,-5.081 -12.367,-2.937 -24.717,-5.93 -36.713,-10.222 -6.427,-2.299 -12.926,-4.383 -18.885,-7.814 -2.221,-1.279 -4.294,-2.67 -5.804,-4.798 -0.365,-0.514 -0.929,-0.887 -1.425,-1.347 -1.07,0.626 -2.074,1.132 -2.347,2.333 -0.426,1.871 -0.199,3.646 1.132,5.111 2.486,2.736 5.054,5.393 8.236,7.349 6.195,3.807 12.486,7.447 19.137,10.412 19.563,8.72 39.926,15.121 60.639,20.385 10.821,2.75 21.79,4.938 32.845,6.604 5.17,0.78 10.343,1.565 15.535,2.17 4.1,0.478 8.226,0.778 12.349,0.993 6.984,0.365 13.973,0.702 20.964,0.854 4.291,0.093 8.59,-0.272 12.886,-0.268 8.785,0.008 17.481,-1.077 26.157,-2.207 6.924,-0.903 13.808,-2.172 20.667,-3.495 9.617,-1.854 19.195,-3.91 28.79,-5.877 6.518,-1.336 12.965,-3.065 19.687,-3.21 2.59,-0.056 5.182,-0.307 7.742,0.204 5.609,1.122 11.03,2.702 15.353,6.761 1.124,1.056 2.279,2.081 3.38,3.16 2.12,2.076 3.652,4.533 4.658,7.325 1.758,4.879 2.027,9.924 1.418,14.998 -0.854,7.126 -2.802,14.02 -4.877,20.871 -2.336,7.709 -4.333,15.476 -4.561,23.592 -0.016,0.575 -0.175,1.147 -0.263,1.692 -0.359,0 -0.546,0.052 -0.681,-0.01 -0.397,-0.183 -0.796,-0.378 -1.153,-0.626 -4.36,-3.028 -8.436,-6.366 -11.764,-10.553 -4.629,-5.824 -9.127,-11.741 -13.25,-17.938 -2.716,-4.081 -5.479,-8.13 -8.234,-12.184 -2.915,-4.29 -6.048,-8.406 -9.724,-12.086 -1.144,-1.145 -2.415,-2.091 -3.934,-2.668 -2.615,-0.993 -5.068,-0.749 -7.333,0.975 -1.476,1.124 -2.674,2.502 -3.436,4.171 -1.278,2.799 -2.457,5.645 -3.608,8.5 -0.451,1.118 -0.72,2.309 -1.06,3.471 -0.57,1.946 -0.855,2.048 -2.369,0.814 -0.427,-0.348 -0.827,-0.731 -1.268,-1.06 -4.501,-3.358 -8.897,-6.871 -13.545,-10.013 -4.294,-2.904 -8.512,-2.44 -11.987,1.469 -0.402,0.453 -0.801,0.91 -1.182,1.381 -2.126,2.624 -3.89,5.481 -5.317,8.534 -2.05,4.388 -4.038,8.806 -6.029,13.221 -0.269,0.595 -0.503,1.237 -0.584,1.879 -0.311,2.443 0.654,4.286 2.774,5.531 4.178,2.455 8.356,4.909 12.533,7.366 5.432,3.195 10.443,6.964 15.168,11.123 1.335,1.175 1.314,1.625 -0.126,2.655 -2.432,1.74 -5.125,2.437 -8.114,2.077 -3.226,-0.389 -5.965,-1.847 -8.524,-3.727 -3.398,-2.498 -6.235,-5.574 -8.966,-8.757 -3.999,-4.661 -7.194,-9.878 -10.412,-15.076 -0.661,-1.068 -1.232,-2.214 -1.681,-3.386 -2.869,-7.505 -5.678,-15.032 -8.547,-22.537 -0.528,-1.383 -1.146,-2.751 -1.889,-4.029 -1.106,-1.906 -2.653,-2.515 -4.76,-2.092 -3.239,0.651 -5.603,3.819 -5.074,7.077 0.378,2.328 1.046,4.609 1.576,6.913 0.116,0.505 0.194,1.018 0.311,1.642 -0.379,-0.086 -0.571,-0.074 -0.682,-0.163 -0.513,-0.416 -1.018,-0.844 -1.499,-1.296 -5.242,-4.925 -11.05,-9.101 -17.159,-12.858 -1.773,-1.09 -3.698,-1.952 -5.608,-2.792 -1.479,-0.652 -3.077,-0.846 -4.696,-0.564 -2.07,0.36 -4.017,2.114 -4.222,3.893 -0.409,3.554 -0.205,7.036 1.334,10.35 0.602,1.297 1.15,2.621 1.68,3.95 3.214,8.06 7.208,15.7 12.165,22.835 1.161,1.671 2.147,3.462 3.253,5.173 1.345,2.081 1.936,4.429 2.429,6.802 0.318,1.531 -0.195,2.076 -1.739,1.932 -2.457,-0.23 -4.714,-1.027 -6.752,-2.45 -1.941,-1.356 -3.886,-2.71 -5.884,-3.979 -2.92,-1.856 -5.345,-4.204 -7.49,-6.909 C 80.724,10.964 75.428,2.05 71.425,-7.632 c -1.417,-3.427 -3.232,-6.628 -5.442,-9.604 -2.181,-2.94 -4.697,-5.548 -7.695,-7.666 -1.409,-0.995 -3.02,-0.845 -4.616,-0.728 -0.886,1.22 -1.13,2.574 -0.89,4.05 0.371,2.282 0.72,4.567 1.064,6.852 0.126,0.842 0.209,1.691 0.312,2.536 -0.104,0.062 -0.209,0.125 -0.313,0.187 -0.383,-0.339 -0.829,-0.629 -1.138,-1.026 -2.598,-3.34 -5.862,-5.982 -9.2,-8.494 -2.184,-1.644 -4.621,-2.974 -7.027,-4.294 -1.755,-0.963 -3.712,-1.356 -5.742,-1.272 -2.762,0.115 -4.354,1.278 -5.328,3.887 -1.023,2.743 -1.298,5.556 -0.896,8.452 0.077,0.55 0.011,1.121 0.011,2.097 -0.683,-0.659 -1.114,-0.986 -1.435,-1.398 -3.648,-4.688 -7.981,-8.664 -12.686,-12.253 -3.199,-2.44 -6.46,-4.795 -10.159,-6.45 -3.094,-1.385 -6.299,-2.346 -9.732,-2.236 -4.156,0.135 -6.853,2.176 -7.974,6.164 -0.489,1.739 -0.688,3.559 -1.037,5.339 -0.065,0.33 -0.219,0.643 -0.427,1.234 -0.861,-1.068 -1.543,-1.918 -2.229,-2.764 -0.867,-1.069 -1.634,-2.242 -2.623,-3.182 -3.512,-3.341 -7.026,-6.686 -10.689,-9.857 -1.859,-1.609 -3.952,-2.996 -6.091,-4.219 -3.069,-1.754 -6.442,-2.497 -10.007,-2.271 -5.976,0.38 -10.017,5.15 -9.407,11.063 0.296,2.871 0.992,5.633 2.005,8.321 2.551,6.771 5.823,13.19 9.597,19.354 4.546,7.424 9.33,14.69 14.511,21.691 0.482,0.65 1.087,1.266 0.963,2.26 -0.802,0.32 -1.592,0.195 -2.382,-0.076 -2.55,-0.873 -5.092,-1.769 -7.652,-2.612 -3.493,-1.151 -6.155,-3.338 -8.185,-6.368 -1.655,-2.471 -3.42,-4.87 -5.013,-7.38 -4.888,-7.704 -10.559,-14.778 -16.803,-21.421 -6.041,-6.428 -12.095,-12.829 -19.14,-18.2 -1.444,-1.101 -2.771,-2.355 -4.192,-3.487 -9.195,-7.323 -18.973,-13.599 -30.446,-16.781 -1.854,-0.514 -3.424,-1.389 -4.784,-2.768 -4.177,-4.236 -9.261,-7.051 -14.755,-9.185 -2.992,-1.163 -6.087,-1.501 -9.249,-0.918 -5.482,1.011 -10.577,2.98 -15.149,6.225 -0.635,0.45 -1.345,0.794 -2.02,1.187 -0.09,-0.081 -0.181,-0.162 -0.271,-0.244 0.267,-0.938 0.517,-1.882 0.805,-2.814 0.634,-2.049 1.309,-4.085 1.928,-6.139 1.269,-4.214 2.345,-8.495 3.797,-12.644 5.477,-15.642 12.755,-30.459 21.173,-44.701 7.448,-12.599 16.344,-24.178 25.936,-35.213 4.661,-5.363 9.304,-10.764 14.639,-15.483 5.57,-4.928 11.18,-9.816 16.91,-14.554 7.866,-6.503 16.31,-12.188 25.057,-17.454 16.305,-9.816 33.563,-17.492 51.661,-23.295 7.23,-2.318 14.533,-4.435 22.03,-5.738 10.741,-1.868 21.526,-3.429 32.395,-4.379 7.919,-0.692 15.838,-0.843 23.77,-0.322 3.902,0.256 7.811,0.433 11.706,0.77 4.991,0.433 9.974,0.967 14.955,1.503 5.485,0.59 10.838,1.892 16.21,3.087 17.755,3.948 34.797,9.941 51.143,17.9 19.54,9.515 37.278,21.701 53.479,36.169 8.775,7.836 16.745,16.43 24.365,25.37 6.947,8.15 13.138,16.856 18.818,25.916 10.078,16.076 17.916,33.229 23.936,51.196 3.989,11.907 7.206,24.033 9.182,36.459 0.231,1.453 0.467,2.906 0.7,4.358 m 33.995,50.6 v -25.787 c -0.106,-0.807 -0.263,-1.612 -0.305,-2.422 -0.074,-1.43 0.015,-2.872 -0.128,-4.293 -0.577,-5.749 -1.109,-11.507 -1.855,-17.236 -1.809,-13.887 -4.854,-27.513 -8.917,-40.914 -19.484,-64.262 -62.862,-119.285 -120.84,-153.165 -37.469,-21.896 -77.895,-33.962 -121.237,-36.255 -0.649,-0.034 -1.293,-0.18 -1.939,-0.274 H 46.63 c -0.538,0.086 -1.073,0.225 -1.614,0.25 -7.429,0.348 -14.824,1.052 -22.198,2.021 -12.735,1.674 -25.285,4.245 -37.625,7.792 -43.12,12.395 -80.826,34.201 -113.037,65.423 -27.025,26.194 -47.613,56.778 -61.75,91.662 -11.306,27.898 -17.63,56.908 -19.093,86.978 -0.077,1.582 -0.371,3.154 -0.564,4.731 0,5.73 0,11.461 0,17.191 0.193,1.517 0.435,3.03 0.57,4.552 0.623,7.018 1.027,14.061 1.861,21.054 1.422,11.924 3.719,23.706 6.944,35.276 17.877,64.143 54.369,115.026 109.333,152.538 27.533,18.791 57.754,31.586 90.291,38.894 9.461,2.125 19.003,3.782 28.641,4.789 6.513,0.682 13.063,1.001 19.596,1.493 0.653,0.049 1.301,0.172 1.951,0.261 h 17.191 c 0.54,-0.085 1.076,-0.214 1.618,-0.249 2.088,-0.132 4.179,-0.232 6.268,-0.348 11.228,-0.625 22.363,-2.035 33.406,-4.127 21.947,-4.157 43.117,-10.821 63.271,-20.459 58.877,-28.156 102.32,-71.766 129.908,-130.922 14.274,-30.607 22.234,-62.884 23.767,-96.683 0.027,-0.594 0.19,-1.181 0.289,-1.771" /></g><g
           transform="translate(275.3431,46.8715)"
           id="g28"><path
             id="path30"
             style="fill:#ffffff;fill-opacity:1;fill-rule:nonzero;stroke:none"
             d="m 0,0 c -2.817,0.177 -7.991,0.42 -13.147,0.856 -3.397,0.288 -6.776,0.818 -10.153,1.306 -5.501,0.795 -11.01,1.555 -16.487,2.496 -6.141,1.056 -12.047,3.053 -18.024,4.763 -16.543,4.731 -32.212,11.556 -47.237,19.859 -13.492,7.456 -26.075,16.311 -37.763,26.326 -19.301,16.536 -35.692,35.613 -48.67,57.533 -2.861,4.833 -5.781,9.641 -8.384,14.613 -2.396,4.577 -4.384,9.367 -6.584,14.048 -2.321,4.938 -4.342,9.993 -6.106,15.154 -0.177,0.519 -0.369,1.043 -0.462,1.58 -0.193,1.112 0.17,1.77 1.091,2.134 0.901,0.357 1.641,0.092 2.184,-0.914 0.416,-0.771 0.725,-1.603 1.055,-2.418 2.374,-5.867 4.647,-11.776 7.133,-17.595 4.318,-10.107 9.973,-19.486 15.772,-28.798 6.163,-9.898 13.137,-19.214 20.739,-27.99 8.364,-9.657 17.372,-18.753 27.45,-26.701 2.509,-1.978 4.935,-4.06 7.419,-6.07 7.003,-5.664 14.717,-10.256 22.413,-14.882 13.691,-8.228 28.081,-14.969 43.219,-20.023 9.287,-3.1 18.771,-5.576 28.382,-7.533 7.995,-1.627 16.051,-2.888 24.175,-3.489 C -5.235,3.757 1.553,3.657 8.326,3.599 17.475,3.52 26.624,3.84 35.687,5.176 c 6.421,0.947 12.798,2.198 19.179,3.401 3.567,0.672 7.148,1.354 10.641,2.326 9.649,2.682 19.17,5.711 28.4,9.695 17.123,7.39 33.183,16.593 48.205,27.601 9.838,7.21 18.876,15.332 27.379,24.107 5.384,5.556 10.257,11.509 15.148,17.462 4.865,5.921 9.114,12.294 13.32,18.698 8.905,13.557 15.61,28.218 21.524,43.24 2.595,6.591 4.426,13.482 6.616,20.233 0.271,0.834 0.538,1.69 0.961,2.45 0.398,0.716 0.995,1.385 1.948,1.27 0.653,-0.078 1.185,-1.14 1.124,-2.189 -0.035,-0.598 -0.168,-1.199 -0.324,-1.781 -3.014,-11.239 -7.014,-22.146 -11.585,-32.82 -4.447,-10.383 -9.712,-20.381 -15.931,-29.835 -4.298,-6.533 -8.727,-12.979 -13.141,-19.435 -0.992,-1.451 -2.131,-2.807 -3.26,-4.159 -2.613,-3.127 -5.155,-6.324 -7.922,-9.311 -4.003,-4.323 -8.141,-8.525 -12.292,-12.708 -7.045,-7.1 -14.959,-13.19 -22.905,-19.207 C 131.413,35.614 119.187,28.407 106.297,22.331 95.132,17.067 83.791,12.274 71.867,8.957 61.035,5.943 50.074,3.596 38.926,2.085 32.751,1.247 26.532,0.986 20.345,0.364 14.342,-0.24 8.358,-0.139 0,0" /></g><g
           transform="translate(135.6758,192.5896)"
           id="g32"><path
             id="path34"
             style="fill:#ffffff;fill-opacity:1;fill-rule:nonzero;stroke:none"
             d="M 0,0 C 0.457,-0.752 0.928,-1.547 1.418,-2.329 1.651,-2.701 1.895,-3.07 2.177,-3.404 2.782,-4.117 3.671,-4.411 4.188,-4.04 4.86,-3.559 4.965,-2.82 4.716,-2.118 4.425,-1.299 4.046,-0.492 3.579,0.24 2.527,1.888 1.747,1.931 0.336,0.516 0.224,0.404 0.158,0.246 0,0 m -2.434,-8.391 c -0.258,1.94 -1.132,3.239 -2.279,4.397 -0.407,0.411 -0.803,0.777 -1.427,0.448 -0.759,-0.4 -1.723,-0.551 -2.016,-1.533 -0.07,-0.236 -0.042,-0.594 0.096,-0.783 0.872,-1.195 1.743,-2.396 2.708,-3.515 0.527,-0.611 1.367,-0.549 1.984,-0.186 0.453,0.268 0.708,0.873 0.934,1.172 m -0.74,-9.056 c -2.039,-0.05 -3.688,0.447 -4.971,1.656 -1.191,1.122 -2.311,2.367 -3.234,3.714 -1.804,2.632 -3.453,5.37 -5.157,8.071 -1.004,1.591 -0.925,2.115 0.613,3.106 6.016,3.876 12.045,7.733 18.079,11.581 1.162,0.74 1.481,0.677 2.314,-0.481 2.769,-3.855 5.186,-7.929 7.173,-12.233 1.688,-3.659 0.353,-6.792 -3.402,-8.272 -0.947,-0.373 -1.996,-0.554 -3.015,-0.653 -0.889,-0.086 -1.438,-0.443 -1.738,-1.254 -0.208,-0.566 -0.369,-1.16 -0.653,-1.685 -1.343,-2.481 -3.533,-3.512 -6.009,-3.55" /></g><g
           transform="translate(247.7677,112.1523)"
           id="g36"><path
             id="path38"
             style="fill:#ffffff;fill-opacity:1;fill-rule:nonzero;stroke:none"
             d="M 0,0 C -0.069,-0.041 -0.138,-0.081 -0.206,-0.122 0.067,-0.601 0.236,-1.352 0.635,-1.505 1.636,-1.89 2.734,-2.14 3.805,-2.191 4.947,-2.244 5.959,-1.193 6.031,-0.18 6.117,1.036 5.531,1.847 4.263,2.199 3.737,2.346 3.192,2.429 2.653,2.521 0.671,2.863 0.337,2.62 0.059,0.655 0.028,0.438 0.019,0.218 0,0 M 13.567,0.352 C 13.63,-3.455 12.497,-5.854 9.862,-7.5 8.417,-8.403 8.325,-8.832 8.818,-10.521 c 0.554,-1.899 1.078,-3.807 1.606,-5.714 0.088,-0.316 0.177,-0.641 0.191,-0.966 0.035,-0.787 -0.297,-1.225 -1.071,-1.071 -1.88,0.372 -3.749,0.831 -5.584,1.384 -0.897,0.271 -1.314,1.131 -1.533,2.022 -0.367,1.494 -0.708,2.995 -1.076,4.49 -0.2,0.812 -0.491,1.579 -1.257,2.054 -0.852,0.528 -1.506,0.372 -1.804,-0.583 -0.277,-0.884 -0.378,-1.825 -0.545,-2.742 -0.148,-0.812 -0.237,-1.636 -0.43,-2.436 -0.303,-1.255 -0.737,-1.607 -1.979,-1.428 -1.302,0.187 -2.599,0.466 -3.866,0.821 -1.161,0.325 -1.477,1.045 -1.218,2.499 0.442,2.489 0.897,4.977 1.378,7.46 0.825,4.263 1.674,8.522 2.516,12.782 0.053,0.27 0.111,0.54 0.192,0.801 C -5.335,9.899 -5.095,10.12 -4,9.996 0.045,9.536 4.083,9.019 7.935,7.594 12.3,5.979 13.536,4.22 13.567,0.352" /></g><g
           transform="translate(416.5139,171.5311)"
           id="g40"><path
             id="path42"
             style="fill:#ffffff;fill-opacity:1;fill-rule:nonzero;stroke:none"
             d="m 0,0 c -0.106,0.206 -0.195,0.402 -0.303,0.588 -0.811,1.394 -2.484,1.782 -3.798,0.748 -0.763,-0.6 -1.412,-1.386 -1.967,-2.189 -0.21,-0.302 -0.189,-1.03 0.038,-1.319 0.752,-0.957 1.755,-1.941 2.959,-1.826 0.708,0.067 1.353,1.123 1.96,1.794 0.323,0.358 0.519,0.836 0.743,1.275 C -0.221,-0.641 -0.126,-0.325 0,0 M -1.578,9.607 C 1.092,9.458 3.22,8.304 4.785,6.205 5.955,4.638 6.659,2.868 6.654,0.859 6.652,-0.243 6.981,-0.637 8.183,-0.943 c 1.76,-0.447 3.534,-0.838 5.301,-1.254 0.268,-0.063 0.536,-0.125 0.801,-0.198 1.846,-0.509 2.027,-1.008 0.836,-2.437 -0.917,-1.1 -1.891,-2.152 -2.804,-3.255 C 11.553,-9.011 10.728,-9.233 9.552,-8.808 7.901,-8.212 6.178,-7.817 4.483,-7.347 4.167,-7.26 3.805,-7.106 3.52,-7.184 2.971,-7.335 2.32,-7.503 1.97,-7.894 1.487,-8.436 1.922,-9.049 2.342,-9.501 c 0.523,-0.563 1.089,-1.09 1.666,-1.598 0.661,-0.582 1.379,-1.101 2.029,-1.694 0.911,-0.831 1.092,-1.45 0.411,-2.455 -0.798,-1.176 -1.771,-2.24 -2.73,-3.296 -0.545,-0.6 -1.259,-0.648 -1.947,-0.169 -0.405,0.282 -0.802,0.583 -1.176,0.906 -4.586,3.961 -9.17,7.925 -13.748,11.896 -0.582,0.505 -1.16,1.023 -1.679,1.59 -0.68,0.744 -0.777,1.485 -0.138,2.221 2.887,3.327 5.777,6.653 8.763,9.889 1.202,1.303 2.888,1.766 4.629,1.818" /></g><g
           transform="translate(286.0222,105.3416)"
           id="g44"><path
             id="path46"
             style="fill:#ffffff;fill-opacity:1;fill-rule:nonzero;stroke:none"
             d="m 0,0 c -0.016,0.001 -0.031,0.001 -0.047,0.002 -0.025,0.493 -0.049,0.987 -0.077,1.48 -0.16,2.907 -2.183,4.575 -5.104,4.208 -1.16,-0.146 -1.563,-0.51 -1.563,-1.692 -0.002,-2.855 0.023,-5.712 0.115,-8.565 0.051,-1.579 0.667,-1.984 2.259,-1.675 0.483,0.094 0.967,0.203 1.436,0.35 1.758,0.551 2.758,1.726 2.876,3.592 0.049,0.766 0.071,1.533 0.105,2.3 m -14.06,-0.182 c 0,3.524 -0.012,7.048 0.005,10.571 0.008,1.568 0.259,1.798 1.78,1.958 4.302,0.452 8.54,-0.022 12.757,-0.848 C 2.872,11.03 4.631,9.666 5.662,7.528 8.218,2.234 8.1,-3.129 5.587,-8.391 c -1.023,-2.14 -2.805,-3.515 -5.28,-3.751 -1.971,-0.187 -3.942,-0.386 -5.918,-0.513 -1.977,-0.128 -3.961,-0.153 -5.939,-0.26 -2.424,-0.131 -2.745,0.166 -2.723,2.659 0.005,0.495 0.022,0.991 0.022,1.486 0.002,2.863 10e-4,5.726 10e-4,8.589 0.063,-0.001 0.127,-0.001 0.19,-0.001" /></g><g
           transform="translate(364.8961,131.9971)"
           id="g48"><path
             id="path50"
             style="fill:#ffffff;fill-opacity:1;fill-rule:nonzero;stroke:none"
             d="m 0,0 c -0.57,-0.21 -1.579,-0.487 -2.494,-0.948 -0.803,-0.404 -1.054,-1.186 -0.651,-1.95 1.435,-2.718 2.891,-5.427 4.427,-8.088 0.582,-1.009 1.42,-1.092 2.395,-0.441 1.408,0.941 2.049,2.385 2.484,3.946 C 6.2,-7.339 6.176,-7.146 6.109,-7.012 5.182,-5.151 4.316,-3.253 3.274,-1.457 2.7,-0.468 1.633,-0.036 0,0 m 13.563,-6.994 c 0.012,-3.234 -0.861,-5.383 -2.815,-6.835 -3.129,-2.325 -6.406,-4.453 -9.631,-6.648 -0.312,-0.213 -0.69,-0.342 -1.052,-0.467 -1.136,-0.393 -1.885,-0.157 -2.528,0.882 -0.52,0.84 -0.964,1.728 -1.419,2.606 -2.81,5.416 -5.617,10.833 -8.416,16.255 -0.85,1.646 -0.803,1.843 0.796,2.687 2.819,1.488 5.647,2.96 8.489,4.402 C -0.821,7 1.559,7.112 3.917,6.814 4.959,6.683 6.123,6.242 6.907,5.565 10.96,2.068 13.202,-2.395 13.563,-6.994" /></g><g
           transform="translate(219.179,119.7907)"
           id="g52"><path
             id="path54"
             style="fill:#ffffff;fill-opacity:1;fill-rule:nonzero;stroke:none"
             d="m 0,0 c -0.153,0.051 -0.306,0.102 -0.459,0.153 -1.036,-0.858 -1.698,-2.025 -2.34,-3.184 -0.111,-0.201 0.096,-0.782 0.323,-0.929 0.777,-0.503 1.961,0.012 2.138,0.943 C -0.15,-2.026 -0.107,-1.007 0,0 M 6.908,6.468 C 6.756,-0.571 6.612,-7.61 6.442,-14.649 6.422,-15.469 6.328,-16.3 6.155,-17.101 5.937,-18.109 5.45,-18.404 4.479,-18.114 c -0.785,0.235 -1.529,0.61 -2.285,0.937 -0.2,0.087 -0.362,0.267 -0.565,0.339 -2.051,0.73 -3.261,1.868 -2.513,4.308 0.261,0.85 -0.387,1.578 -1.242,1.91 -1.227,0.478 -2.476,0.901 -3.71,1.361 -1.018,0.379 -1.824,0.026 -2.528,-0.699 -0.23,-0.237 -0.456,-0.48 -0.658,-0.74 -0.743,-0.959 -1.666,-1.182 -2.778,-0.72 -1.269,0.526 -2.553,1.019 -3.813,1.567 -1.488,0.647 -1.599,1.062 -0.546,2.28 2.771,3.204 5.563,6.391 8.363,9.57 2.181,2.478 4.423,4.903 6.565,7.414 1.014,1.188 2.147,1.44 3.521,0.885 C 3.41,9.846 4.518,9.361 5.615,8.856 6.624,8.392 7.096,7.584 6.908,6.468" /></g><g
           transform="translate(391.7233,146.5704)"
           id="g56"><path
             id="path58"
             style="fill:#ffffff;fill-opacity:1;fill-rule:nonzero;stroke:none"
             d="m 0,0 c -0.122,-0.083 -0.243,-0.166 -0.365,-0.248 0.225,-0.758 0.42,-1.526 0.681,-2.27 0.257,-0.731 0.586,-1.636 1.497,-1.456 0.545,0.108 0.966,0.848 1.602,1.458 C 2.125,-1.566 1.063,-0.783 0,0 M 18.722,-3.949 C 16.88,-5.4 15.321,-6.618 13.773,-7.852 c -0.743,-0.592 -1.501,-0.6 -2.297,-0.136 -0.095,0.056 -0.197,0.101 -0.288,0.162 -2.477,1.672 -2.66,1.164 -4.51,-0.497 -0.573,-0.514 -1.223,-0.941 -1.803,-1.448 -0.972,-0.851 -1.053,-1.272 -0.556,-2.452 0.149,-0.355 0.365,-0.691 0.455,-1.059 0.281,-1.153 0.112,-2.171 -0.926,-2.939 -1.017,-0.754 -1.973,-1.592 -2.998,-2.334 -1.305,-0.945 -1.757,-0.808 -2.263,0.7 -0.717,2.139 -1.342,4.308 -2.066,6.444 -1.412,4.169 -2.878,8.32 -4.294,12.487 -0.371,1.092 -0.626,2.222 -0.967,3.325 -0.262,0.847 -0.006,1.547 0.615,2.084 1.04,0.9 2.106,1.774 3.209,2.595 0.873,0.65 1.844,0.653 2.803,0.134 0.435,-0.235 0.87,-0.475 1.291,-0.735 C 4.66,5.096 10.147,1.72 15.613,-1.69 c 1.011,-0.63 1.935,-1.4 3.109,-2.259" /></g><g
           transform="translate(427.0784,193.2542)"
           id="g60"><path
             id="path62"
             style="fill:#ffffff;fill-opacity:1;fill-rule:nonzero;stroke:none"
             d="m 0,0 c -0.78,-1.363 -1.478,-2.602 -2.193,-3.831 -1.073,-1.843 -1.321,-1.905 -3.238,-0.852 -0.674,0.37 -1.357,0.728 -2.02,1.118 -0.995,0.584 -1.163,1.107 -0.735,2.187 0.06,0.153 0.139,0.3 0.22,0.444 2.726,4.837 5.454,9.674 8.183,14.51 0.108,0.191 0.223,0.38 0.352,0.558 0.85,1.181 1.401,1.285 2.617,0.526 C 4.024,14.136 4.899,13.665 5.711,13.104 6.621,12.476 6.72,11.992 6.19,11.002 5.722,10.13 5.182,9.298 4.702,8.432 3.753,6.718 3.905,6.083 5.598,5.068 9.229,2.89 12.873,0.733 16.523,-1.414 19.02,-2.883 19.634,-3.169 17.618,-6.076 17.211,-6.663 16.879,-7.302 16.472,-7.888 15.593,-9.153 15.215,-9.228 13.895,-8.433 10.833,-6.59 7.773,-4.742 4.717,-2.89 3.213,-1.979 1.719,-1.054 0,0" /></g><g
           transform="translate(189.6538,147.313)"
           id="g64"><path
             id="path66"
             style="fill:#ffffff;fill-opacity:1;fill-rule:nonzero;stroke:none"
             d="m 0,0 c 1.641,-0.948 3.117,-1.697 4.479,-2.614 1.41,-0.949 1.435,-1.372 0.539,-2.868 -2.403,-4.012 -4.815,-8.02 -7.223,-12.03 -0.17,-0.283 -0.352,-0.56 -0.504,-0.852 -0.543,-1.037 -0.492,-1.416 0.476,-2.071 1.641,-1.11 3.325,-2.155 4.983,-3.24 0.505,-0.33 1.024,-0.658 1.465,-1.064 0.848,-0.781 1.021,-1.564 0.39,-2.503 -0.67,-0.997 -1.489,-1.901 -2.296,-2.799 -0.448,-0.498 -1.043,-0.574 -1.656,-0.226 -0.43,0.244 -0.878,0.459 -1.297,0.72 -3.686,2.304 -7.373,4.608 -11.05,6.929 -1.693,1.068 -1.801,1.497 -0.76,3.187 3.579,5.811 7.165,11.616 10.777,17.406 C -1.253,-1.344 -0.649,-0.775 0,0" /></g><g
           transform="translate(169.9026,138.444)"
           id="g68"><path
             id="path70"
             style="fill:#ffffff;fill-opacity:1;fill-rule:nonzero;stroke:none"
             d="m 0,0 c -0.969,-1.223 -1.749,-2.288 -2.614,-3.279 -1.055,-1.207 -1.688,-1.261 -2.934,-0.187 -2.711,2.335 -5.377,4.72 -8.063,7.084 -0.785,0.691 -1.586,1.365 -2.358,2.071 -1.627,1.488 -1.693,2.068 -0.284,3.713 1.791,2.089 3.647,4.122 5.455,6.198 2.566,2.948 5.112,5.912 7.667,8.869 0.288,0.333 0.552,0.691 0.869,0.994 0.721,0.687 1.263,0.795 2.051,0.19 1.264,-0.97 2.464,-2.028 3.656,-3.087 C 4.071,22.01 4.078,21.307 3.628,20.628 3.356,20.217 3.027,19.841 2.702,19.469 -0.086,16.276 -2.879,13.088 -5.671,9.899 -5.997,9.526 -6.347,9.171 -6.644,8.776 -7.409,7.756 -7.342,7.17 -6.33,6.217 -4.847,4.822 -3.329,3.463 -1.859,2.055 -1.231,1.454 -0.687,0.766 0,0" /></g><g
           transform="translate(161.9702,172.2426)"
           id="g72"><path
             id="path74"
             style="fill:#ffffff;fill-opacity:1;fill-rule:nonzero;stroke:none"
             d="m 0,0 c -0.703,-0.443 -1.168,-0.662 -1.545,-0.985 -5.14,-4.411 -10.252,-8.854 -15.406,-13.248 -2.251,-1.919 -2.371,-1.872 -4.298,0.422 -0.601,0.717 -1.193,1.443 -1.75,2.195 -0.701,0.945 -0.691,1.254 0.07,2.159 0.353,0.419 0.764,0.795 1.178,1.156 4.812,4.199 9.613,8.41 14.453,12.576 2.113,1.819 2.18,1.788 4.001,-0.293 C -2.291,2.832 -1.346,1.631 0,0" /></g><g
           transform="translate(321.8811,110.8637)"
           id="g76"><path
             id="path78"
             style="fill:#ffffff;fill-opacity:1;fill-rule:nonzero;stroke:none"
             d="M 0,0 C 0.02,2.451 1.725,4.23 4.074,4.25 6.096,4.267 8.001,2.302 8.012,0.186 8.025,-2.261 6.17,-4.319 3.948,-4.325 1.641,-4.33 -0.021,-2.51 0,0" /></g><g
           transform="translate(499.615,363.697)"
           id="g80"><path
             id="path82"
             style="fill:#ffffff;fill-opacity:1;fill-rule:nonzero;stroke:none"
             d="m 0,0 c -0.257,-0.483 -0.44,-1.142 -0.866,-1.542 -0.444,-0.417 -1.431,-0.073 -1.997,0.697 -0.481,0.654 -0.83,1.42 -1.151,2.173 -2.918,6.831 -5.734,13.708 -8.743,20.499 -4.044,9.131 -9.024,17.762 -14.405,26.164 -0.564,0.881 -1.161,1.742 -1.716,2.629 -13.137,21.011 -29.938,38.713 -49.059,54.32 -4.696,3.833 -9.395,7.658 -14.707,10.638 -0.479,0.268 -0.931,0.59 -1.378,0.911 -11.952,8.591 -24.901,15.367 -38.426,21.093 -2.078,0.88 -4.168,1.731 -6.237,2.631 -8.622,3.748 -17.697,6.026 -26.784,8.257 -4.487,1.102 -8.977,2.227 -13.515,3.078 -4.324,0.811 -8.725,1.199 -13.07,1.912 -10.107,1.659 -20.313,1.64 -30.489,1.558 -8.524,-0.069 -17.058,-0.629 -25.491,-2.138 -5.362,-0.958 -10.768,-1.688 -16.105,-2.763 -4.094,-0.825 -8.089,-2.127 -12.168,-3.038 -4.098,-0.916 -8.055,-2.22 -11.965,-3.717 -2.106,-0.806 -4.229,-1.581 -6.38,-2.257 -8.23,-2.587 -15.862,-6.539 -23.602,-10.252 -12.065,-5.787 -23.255,-13.023 -34.015,-20.902 -10.509,-7.695 -20.069,-16.497 -29.15,-25.847 -13.438,-13.837 -24.774,-29.248 -34.503,-45.832 -5.151,-8.781 -9.567,-17.974 -13.142,-27.542 -1.829,-4.896 -3.955,-9.688 -5.613,-14.638 -4.379,-13.068 -7.61,-26.436 -9.756,-40.05 -0.676,-4.291 -0.971,-8.643 -1.429,-12.968 -0.237,-2.245 -0.441,-4.494 -0.686,-6.738 -0.046,-0.43 -0.172,-0.864 -0.337,-1.266 -0.285,-0.693 -0.855,-0.973 -1.59,-0.927 -0.812,0.051 -1.356,0.476 -1.541,1.256 -0.1,0.419 -0.109,0.88 -0.059,1.31 0.931,7.928 1.694,15.881 2.864,23.774 1.447,9.75 3.689,19.343 6.479,28.807 2.43,8.243 5.361,16.28 8.649,24.232 3.079,7.443 6.351,14.763 10.221,21.809 6.828,12.431 14.665,24.181 23.559,35.257 12.595,15.684 26.819,29.633 43.031,41.548 2.22,1.631 4.381,3.342 6.622,4.942 12.319,8.798 25.393,16.25 39.357,22.14 8.522,3.594 17.008,7.282 25.965,9.68 8.768,2.347 17.523,4.784 26.481,6.33 7.325,1.264 14.69,2.268 22.107,2.84 0.384,0.03 0.769,0.066 1.154,0.076 6.388,0.162 12.775,0.344 19.163,0.461 1.647,0.03 3.299,-0.141 4.947,-0.232 3.573,-0.197 7.158,-0.278 10.716,-0.634 4.543,-0.453 9.08,-1.026 13.591,-1.732 9.467,-1.483 18.859,-3.41 28.078,-5.994 6.24,-1.749 12.285,-4.19 18.433,-6.274 4.65,-1.576 9.114,-3.583 13.55,-5.663 3.14,-1.472 6.304,-2.894 9.407,-4.44 2.708,-1.348 5.376,-2.782 8.007,-4.275 10.511,-5.964 20.392,-12.885 29.977,-20.209 4.63,-3.537 8.842,-7.617 13.304,-11.38 9.875,-8.33 17.907,-18.348 26.114,-28.222 8.029,-9.659 14.549,-20.302 20.933,-31.065 5.5,-9.273 9.742,-19.114 13.776,-29.068 C -2.619,7.02 -1.611,4.638 -0.653,2.235 -0.392,1.58 -0.252,0.877 0,0" /></g><g
           transform="translate(238.1124,463.6689)"
           id="g84"><path
             id="path86"
             style="fill:#ffffff;fill-opacity:1;fill-rule:nonzero;stroke:none"
             d="m 0,0 c -1.633,-0.426 -3.087,-0.733 -4.487,-1.198 -0.846,-0.282 -0.854,-1.194 -0.637,-1.834 0.157,-0.463 0.9,-1.146 1.209,-1.066 1.475,0.382 2.931,0.908 4.299,1.577 0.358,0.175 0.527,1.056 0.493,1.594 C 0.855,-0.591 0.292,-0.289 0,0 m 1.768,-8.714 c -1.422,-0.456 -2.789,-0.842 -4.107,-1.354 -0.314,-0.121 -0.692,-0.689 -0.65,-1 0.106,-0.795 0.356,-1.599 0.709,-2.321 0.144,-0.293 0.781,-0.615 1.066,-0.524 1.553,0.493 3.128,0.993 4.574,1.727 1.027,0.522 1.054,1.893 0.157,2.639 -0.475,0.395 -1.144,0.556 -1.749,0.833 M 1.943,6.49 C 2.387,6.438 3.161,6.397 3.912,6.248 5.779,5.878 6.978,4.695 7.347,2.878 7.725,1.015 8.258,-0.902 7.21,-2.762 6.905,-3.304 7.267,-3.7 7.655,-4.035 8.321,-4.61 9.031,-5.137 9.66,-5.749 c 1.034,-1.008 1.571,-2.233 1.447,-3.715 -0.042,-0.49 -0.002,-0.988 0.012,-1.482 0.093,-3.263 -1.654,-5.964 -4.77,-6.946 -4.036,-1.273 -8.118,-2.399 -12.196,-3.533 -1.455,-0.405 -1.887,-0.132 -2.265,1.335 -1.753,6.815 -3.478,13.637 -5.204,20.458 -0.094,0.372 -0.128,0.76 -0.167,1.143 -0.083,0.808 0.215,1.458 1.008,1.685 4.642,1.33 9.169,3.158 14.418,3.294" /></g><g
           transform="translate(327.1631,463.8693)"
           id="g88"><path
             id="path90"
             style="fill:#ffffff;fill-opacity:1;fill-rule:nonzero;stroke:none"
             d="m 0,0 c -1.022,-0.13 -1.766,-0.616 -1.943,-1.406 -0.157,-0.7 0.23,-1.516 1.02,-1.86 0.902,-0.393 1.842,-0.711 2.786,-0.992 0.735,-0.219 1.953,0.441 2.283,1.208 0.368,0.856 -0.233,1.46 -0.813,1.763 C 2.284,-0.74 1.117,-0.417 0,0 m -0.615,-14.008 c 0.554,0.06 0.944,0.06 1.312,0.149 0.946,0.231 1.804,1.097 1.893,1.859 0.094,0.801 -0.499,1.699 -1.594,2.05 -1.192,0.383 -2.431,0.686 -3.671,0.83 -1.116,0.129 -2.073,-0.885 -1.89,-1.971 0.171,-1.018 0.502,-2.064 1.711,-2.387 0.79,-0.211 1.592,-0.378 2.239,-0.53 M 11.561,-2.28 c 0.082,-2.019 -0.538,-3.718 -2.319,-4.941 -0.999,-0.686 -1.11,-1.132 -0.549,-2.256 1.385,-2.774 0.877,-5.335 -0.734,-7.792 -1.539,-2.345 -3.73,-3.341 -6.508,-2.927 -1.029,0.153 -2.045,0.415 -3.056,0.672 -3.035,0.772 -6.067,1.554 -9.094,2.356 -1.763,0.468 -2.135,1.026 -1.702,2.705 1.726,6.703 3.483,13.398 5.233,20.095 0.083,0.319 0.198,0.629 0.306,0.941 0.206,0.6 0.62,0.888 1.259,0.806 C -5.276,7.336 -4.941,7.307 -4.629,7.21 -0.594,5.945 3.437,4.669 7.469,3.395 7.626,3.346 7.785,3.299 7.938,3.238 c 2.15,-0.855 3.85,-2.597 3.623,-5.518" /></g><g
           transform="translate(387.5786,429.1143)"
           id="g92"><path
             id="path94"
             style="fill:#ffffff;fill-opacity:1;fill-rule:nonzero;stroke:none"
             d="M 0,0 C 0.986,-0.059 1.71,0.088 2.137,0.885 2.566,1.687 2.549,2.489 1.997,3.206 1.531,3.81 1.023,4.4 0.45,4.901 -1.167,6.311 -1.711,6.241 -2.957,4.562 -3.251,4.167 -3.551,3.765 -3.768,3.327 -4.025,2.808 -4.075,2.233 -3.575,1.818 -2.479,0.907 -1.4,-0.065 0,0 m -1.373,-17.311 c -0.717,0.45 -1.189,0.707 -1.617,1.023 -1.018,0.752 -1.979,1.586 -3.03,2.285 -1.004,0.669 -1.351,1.528 -1.15,2.678 0.303,1.733 0.594,3.468 0.884,5.203 0.147,0.875 0.27,1.749 -0.291,2.547 -0.535,0.761 -1.072,0.901 -1.803,0.324 -0.464,-0.367 -0.852,-0.854 -1.201,-1.341 -0.802,-1.116 -1.525,-2.29 -2.345,-3.393 -0.705,-0.949 -1.117,-0.982 -2.06,-0.252 -0.957,0.741 -1.888,1.516 -2.818,2.289 -1.277,1.063 -1.346,1.507 -0.356,2.905 2.543,3.591 5.121,7.159 7.659,10.755 1.364,1.932 2.687,3.893 4.005,5.857 1.215,1.81 1.733,1.947 3.398,0.645 C 0.85,11.911 3.793,9.6 6.69,7.233 10.069,4.472 10.625,0.282 8.142,-3.337 6.772,-5.332 5.016,-6.659 2.464,-6.82 0.595,-6.938 0.259,-7.439 0.036,-9.264 c -0.268,-2.182 -0.607,-4.356 -0.94,-6.529 -0.064,-0.416 -0.247,-0.813 -0.469,-1.518" /></g><g
           transform="translate(280.933,340.7933)"
           id="g96"><path
             id="path98"
             style="fill:#ffffff;fill-opacity:1;fill-rule:nonzero;stroke:none"
             d="m 0,0 c -1.995,0.26 -4.005,0.438 -5.98,0.804 -1.911,0.355 -2.592,1.251 -2.731,3.167 -0.151,2.082 0.23,4.079 1.203,5.912 2.6,4.903 6.119,8.887 11.467,10.884 2.053,0.766 4.144,1.508 6.282,1.943 1.354,0.276 2.842,0.075 4.242,-0.115 1.477,-0.201 2.305,-1.202 2.452,-2.704 0.201,-2.066 -0.13,-4.075 -0.884,-5.986 C 15.568,12.684 15,11.462 14.259,10.386 12.824,8.303 11.313,6.263 9.702,4.314 7.211,1.301 3.875,0.118 0,0" /></g><g
           transform="translate(218.944,442.1731)"
           id="g100"><path
             id="path102"
             style="fill:#ffffff;fill-opacity:1;fill-rule:nonzero;stroke:none"
             d="m 0,0 c -0.124,-1.648 -0.549,-3.134 -1.514,-4.386 -2.471,-3.204 -5.496,-5.53 -9.724,-5.859 -3.81,-0.297 -6.813,1.041 -8.759,4.384 -0.967,1.66 -1.763,3.42 -2.625,5.141 -1.28,2.556 -2.549,5.117 -3.823,7.676 -0.172,0.344 -0.38,0.675 -0.508,1.035 -0.401,1.121 -0.22,1.795 0.834,2.369 1.251,0.683 2.571,1.244 3.875,1.826 0.767,0.344 1.415,0.074 1.878,-0.574 0.317,-0.444 0.568,-0.941 0.807,-1.434 1.487,-3.069 2.96,-6.145 4.444,-9.216 0.335,-0.693 0.673,-1.387 1.053,-2.056 1.093,-1.92 2.899,-2.514 4.745,-1.586 1.837,0.923 2.4,2.693 1.458,4.77 -0.659,1.452 -1.391,2.871 -2.087,4.306 -1.249,2.573 -2.508,5.142 -3.739,7.724 -0.776,1.627 -0.63,2.05 0.961,2.866 1.174,0.601 2.357,1.193 3.566,1.72 1.018,0.445 1.506,0.288 2.007,-0.725 C -5.004,13.648 -2.522,9.462 -1.125,4.792 -0.656,3.223 -0.37,1.599 0,0" /></g><g
           transform="translate(252.1614,339.4458)"
           id="g104"><path
             id="path106"
             style="fill:#ffffff;fill-opacity:1;fill-rule:nonzero;stroke:none"
             d="m 0,0 c -1.244,0.074 -2.402,0.089 -3.547,0.221 -1.912,0.221 -2.818,1.167 -3.05,3.094 -0.147,1.225 0.041,2.402 0.511,3.549 1.731,4.234 4.352,7.748 8.228,10.256 3.009,1.946 6.186,3.561 9.501,4.922 1.748,0.717 3.535,0.77 5.35,0.545 1.516,-0.188 2.339,-1.036 2.536,-2.589 0.226,-1.777 -0.063,-3.513 -0.655,-5.189 C 17.502,10.929 15.347,7.479 12.803,4.289 10.925,1.933 8.251,0.897 5.331,0.513 3.534,0.277 1.722,0.162 0,0" /></g><g
           transform="translate(180.0397,432.3005)"
           id="g108"><path
             id="path110"
             style="fill:#ffffff;fill-opacity:1;fill-rule:nonzero;stroke:none"
             d="M 0,0 C -0.041,1.092 -0.906,2.02 -1.942,2.084 -3.085,2.155 -5.275,0.89 -5.78,-0.132 -6.271,-1.125 -5.406,-1.646 -4.968,-2.259 -4.48,-2.94 -3.976,-3.816 -2.943,-3.661 -1.801,-3.49 0.041,-1.105 0,0 M 7.457,0.452 C 7.323,-1.676 6.452,-3.587 4.845,-5.149 3.819,-6.146 2.759,-7.108 1.722,-8.094 0.298,-9.446 0.299,-9.727 1.431,-11.261 c 0.782,-1.06 1.529,-2.153 2.21,-3.28 0.739,-1.225 0.612,-1.79 -0.512,-2.675 -0.864,-0.68 -1.753,-1.332 -2.665,-1.946 -1.261,-0.849 -1.877,-0.76 -2.782,0.469 -1.664,2.259 -3.27,4.561 -4.921,6.83 -2.525,3.47 -5.07,6.925 -7.603,10.39 -1.107,1.514 -1.094,1.809 0.373,2.958 2.382,1.864 4.721,3.8 7.231,5.475 1.529,1.021 3.294,1.765 5.046,2.356 C 0.012,10.058 2.084,9.44 3.765,7.869 5.694,6.066 7.057,3.898 7.452,1.221 7.484,1.006 7.457,0.782 7.457,0.452" /></g><g
           transform="translate(358.3336,448.2341)"
           id="g112"><path
             id="path114"
             style="fill:#ffffff;fill-opacity:1;fill-rule:nonzero;stroke:none"
             d="m 0,0 c -0.178,0.083 -0.355,0.166 -0.533,0.25 -1.113,-1.063 -2.079,-2.262 -2.732,-3.683 -0.236,-0.515 0.363,-1.461 0.903,-1.561 0.636,-0.118 1.244,0.012 1.422,0.744 0.342,1.41 0.63,2.833 0.94,4.25 m 3.729,-19.402 c -1.537,0.741 -2.984,1.406 -4.401,2.129 -1.362,0.695 -1.698,1.395 -1.535,2.948 0.04,0.383 0.085,0.765 0.13,1.147 0.113,0.942 -0.302,1.59 -1.123,2.006 -1.127,0.572 -2.245,1.164 -3.388,1.702 -1.161,0.546 -1.773,0.408 -2.658,-0.501 -2.085,-2.142 -2.086,-2.142 -4.709,-0.782 -0.829,0.43 -1.668,0.845 -2.481,1.304 -0.413,0.232 -0.779,0.545 -1.318,0.929 0.494,0.627 0.842,1.173 1.288,1.621 5.157,5.191 10.322,10.375 15.5,15.544 C 0.301,9.909 0.781,9.96 2.398,9.237 3.2,8.879 4.021,8.557 4.809,8.169 6.399,7.384 6.933,6.456 6.771,4.733 6.438,1.175 6.067,-2.38 5.739,-5.938 5.421,-9.388 5.135,-12.841 4.842,-16.293 4.749,-17.381 4.755,-18.499 3.729,-19.402" /></g><g
           transform="translate(464.4036,375.6134)"
           id="g116"><path
             id="path118"
             style="fill:#ffffff;fill-opacity:1;fill-rule:nonzero;stroke:none"
             d="m 0,0 c 0.55,0 1.103,0.034 1.651,-0.006 1.66,-0.125 2.486,-0.951 2.573,-2.628 0.118,-2.286 -0.294,-4.505 -1.11,-6.628 -1.76,-4.587 -4.772,-8.316 -8.517,-11.369 -3.574,-2.914 -7.614,-2.707 -11.601,-0.564 -1.282,0.688 -1.788,1.882 -1.871,3.285 -0.123,2.076 0.252,4.055 1.208,5.908 2.431,4.713 6.181,8.108 10.784,10.59 C -4.945,-0.368 -2.618,0.008 0,0" /></g><g
           transform="translate(282.6438,467.5551)"
           id="g120"><path
             id="path122"
             style="fill:#ffffff;fill-opacity:1;fill-rule:nonzero;stroke:none"
             d="M 0,0 C 2.427,0.021 4.103,-1.667 4.124,-4.154 4.141,-6.26 2.129,-8.316 0.035,-8.332 -2.258,-8.35 -4.143,-6.564 -4.149,-4.367 -4.157,-1.462 -2.791,-0.024 0,0" /></g></g></g></g></svg>